<?xml version="1.0" encoding="UTF-8" standalone="no"?>
<!-- Created with Inkscape (http://www.inkscape.org/) -->

<svg
   xmlns:dc="http://purl.org/dc/elements/1.1/"
   xmlns:cc="http://creativecommons.org/ns#"
   xmlns:rdf="http://www.w3.org/1999/02/22-rdf-syntax-ns#"
   xmlns:svg="http://www.w3.org/2000/svg"
   xmlns="http://www.w3.org/2000/svg"
   version="1.1"
   width="64"
   height="64"
   id="svg2985">
  <defs
     id="defs2987" />
  <metadata
     id="metadata2990">
    <rdf:RDF>
      <cc:Work
         rdf:about="">
        <dc:format>image/svg+xml</dc:format>
        <dc:type
           rdf:resource="http://purl.org/dc/dcmitype/StillImage" />
        <dc:title></dc:title>
      </cc:Work>
    </rdf:RDF>
  </metadata>
  <g
     id="layer1">
    <path
       d="M 3.8364554,52.288324 11.090909,31.636363 27.272727,16.909091 44.909091,8.1818182"
       id="path2993"
       style="fill:none;stroke:#c8c8c8;stroke-width:4;stroke-linecap:round;stroke-linejoin:miter;stroke-miterlimit:4;stroke-opacity:1;stroke-dasharray:none" />
    <path
       d="M 22.545454,60 29.090909,39.636363 44.909091,24.545454 60.363636,18.181818"
       id="path2995"
       style="fill:none;stroke:#c8c8c8;stroke-width:4;stroke-linecap:round;stroke-linejoin:miter;stroke-miterlimit:4;stroke-opacity:1;stroke-dasharray:none" />
    <path
       d="m 2.3324413,21.417998 8.5766497,10.036547 18.181818,7.818182 21.272727,5.272727"
       id="path2997"
       style="fill:none;stroke:#c8c8c8;stroke-width:4;stroke-linecap:round;stroke-linejoin:miter;stroke-miterlimit:4;stroke-opacity:1;stroke-dasharray:none" />
    <path
       d="m 17.80526,6.5089072 9.649285,10.4001838 17.454546,7.272727 16.909091,3.636364"
       id="path2999"
       style="fill:none;stroke:#ff5a11;stroke-width:4;stroke-linecap:round;stroke-linejoin:miter;stroke-miterlimit:4;stroke-opacity:1;stroke-dasharray:none" />
    <path
       d="m 10,29.636364 a 1.2727273,1.2727273 0 1 1 -2.5454543,0 1.2727273,1.2727273 0 1 1 2.5454543,0 z"
       transform="matrix(4.1607144,0,0,4.1607144,-6.6753265,-83.626628)"
       id="path3769-4"
       style="fill:#c8c8c8;fill-opacity:1;stroke:none" />
    <path
       d="m 10,29.636364 a 1.2727273,1.2727273 0 1 1 -2.5454543,0 1.2727273,1.2727273 0 1 1 2.5454543,0 z"
       transform="matrix(4.1607144,0,0,4.1607144,-8.6753265,-107.26299)"
       id="path3843"
       style="fill:#ff5a11;fill-opacity:1;stroke:none" />
    <path
       d="m 10,29.636364 a 1.2727273,1.2727273 0 1 1 -2.5454543,0 1.2727273,1.2727273 0 1 1 2.5454543,0 z"
       transform="matrix(4.1607144,0,0,4.1607144,8.0519462,-98.899358)"
       id="path3845"
       style="fill:#ff5a11;fill-opacity:1;stroke:none" />
    <path
       d="m 10,29.636364 a 1.2727273,1.2727273 0 1 1 -2.5454543,0 1.2727273,1.2727273 0 1 1 2.5454543,0 z"
       transform="matrix(4.1607144,0,0,4.1607144,-24.31169,-91.626628)"
       id="path3858"
       style="fill:#c8c8c8;fill-opacity:1;stroke:none" />
  </g>
</svg>
